:version 1.10
:name ASF
:units
  mass 1
  length 1
  angle deg
:documentation
  ASF file generated by Kaydara
:root
  axis xyz
  order  tx ty tz rx ry rz
  position 0 0 0
  orientation 0 0 0
:bonedata
  begin
    id 1
    name RightUpLegDummy
    direction -0.718183 -0.695806 0.00816078
    length 4.904
    axis 0 0 0 xyz
  end
  begin
    id 2
    name RightUpLeg
    direction -0.0736652 -0.994202 0.0783343
    length 17.4976
    axis -2.72909 -3.00389 -4.00133 xyz
    dof rx ry rz
  end
  begin
    id 3
    name RightLeg
    direction -0.0389037 -0.994596 -0.0962598
    length 16.5821
    axis 3.95836 -18.5909 -4.46993 xyz
    dof rx ry rz
  end
  begin
    id 4
    name RightFoot
    direction -0.311643 -0.412678 0.855906
    length 3.77069
    axis -1.99483 -18.8351 -3.27644 xyz
    dof rx ry rz
  end
  begin
    id 5
    name RightToes
    direction -0.317852 0.0389852 0.947339
    length 3.85082
    axis -2.00228 -18.1713 -3.25211 xyz
    dof rx ry rz
  end
  begin
    id 6
    name SpineDummy
    direction 8.3039e-015 1 4.44677e-016
    length 4.6813
    axis 0 0 0 xyz
  end
  begin
    id 7
    name Spine
    direction -0.000262373 0.999988 0.00493267
    length 10.1015
    axis -0.00246081 0.00062579 0.0150362 xyz
    dof rx ry rz
  end
  begin
    id 8
    name Spine1
    direction 0 0 0
    length 0
    axis -0.00349562 0.000650293 0.0196666 xyz
    dof rx ry rz
  end
  begin
    id 9
    name HEadDummy
    direction -0.000343232 0.999999 0.00123745
    length 3.43865
    axis -0.00349562 0.000650293 0.0196666 xyz
  end
  begin
    id 10
    name HEad
    direction -0.0461221 0.980933 0.188796
    length 5.12695
    axis -0.00351404 -7.04812 0.0199272 xyz
    dof rx ry rz
  end
  begin
    id 11
    name LeftShoulder1Dummy
    direction 0.998904 -0.0399089 -0.0244534
    length 3.5433
    axis -0.00349562 0.000650293 0.0196666 xyz
  end
  begin
    id 12
    name LeftShoulder1
    direction 0.99951 1.64443e-005 0.0312999
    length 4.05031
    axis -0.00349562 0.000650293 0.0196666 xyz
    dof rx ry rz
  end
  begin
    id 13
    name LeftArm
    direction 0.984791 0.0515299 0.165927
    length 12.9126
    axis -64.823 -10.7743 5.20463 xyz
    dof rx ry rz
  end
  begin
    id 14
    name LeftForeArm
    direction 0.984968 0.0534808 0.16425
    length 10.8596
    axis -30.0462 -7.70601 1.87451 xyz
    dof rx ry rz
  end
  begin
    id 15
    name LeftHand
    direction 0.975871 0.0289682 0.216418
    length 6.62295
    axis -20.1348 -6.98077 1.86072 xyz
    dof rx ry rz
  end
  begin
    id 16
    name RightShoulderDummy
    direction -0.998877 -0.0405946 -0.0244307
    length 3.5433
    axis -0.00349562 0.000650293 0.0196666 xyz
  end
  begin
    id 17
    name RightShoulder
    direction -0.998933 -0.0249743 -0.0388558
    length 4.05031
    axis -0.0205316 -4.02113 1.41395 xyz
    dof rx ry rz
  end
  begin
    id 18
    name RightArm
    direction -0.997559 0.068664 0.0127103
    length 12.9638
    axis -67.3882 1.84188 -6.15987 xyz
    dof rx ry rz
  end
  begin
    id 19
    name RightForeArm
    direction -0.991508 0.0912848 0.0926241
    length 10.8312
    axis -22.1975 3.41087 -4.28711 xyz
    dof rx ry rz
  end
  begin
    id 20
    name RightHand
    direction -0.989262 0.0600788 0.133232
    length 6.57864
    axis -12.2911 2.17515 -4.39675 xyz
    dof rx ry rz
  end
  begin
    id 21
    name LeftUpLegDummy
    direction 0.718183 -0.695806 0.00816078
    length 4.904
    axis 0 0 0 xyz
  end
  begin
    id 22
    name LeftUpLeg
    direction 0.0831398 -0.99469 0.0606531
    length 17.4976
    axis -1.71016 2.29552 4.63832 xyz
    dof rx ry rz
  end
  begin
    id 23
    name LeftLeg
    direction 0.0498442 -0.991778 -0.117862
    length 16.5821
    axis 5.13757 15.5727 5.13348 xyz
    dof rx ry rz
  end
  begin
    id 24
    name LeftFoot
    direction 0.269026 -0.433896 0.85986
    length 3.77069
    axis -0.576502 15.6961 4.10267 xyz
    dof rx ry rz
  end
  begin
    id 25
    name LeftToes
    direction 0.277311 0.0251143 0.960452
    length 3.85048
    axis -0.576502 15.6961 4.10267 xyz
    dof rx ry rz
  end
:hierarchy
  begin
    root RightUpLegDummy SpineDummy LeftUpLegDummy
    RightUpLegDummy RightUpLeg
    RightUpLeg RightLeg
    RightLeg RightFoot
    RightFoot RightToes
    SpineDummy Spine
    Spine Spine1
    Spine1 HEadDummy LeftShoulder1Dummy RightShoulderDummy
    HEadDummy HEad
    LeftShoulder1Dummy LeftShoulder1
    LeftShoulder1 LeftArm
    LeftArm LeftForeArm
    LeftForeArm LeftHand
    RightShoulderDummy RightShoulder
    RightShoulder RightArm
    RightArm RightForeArm
    RightForeArm RightHand
    LeftUpLegDummy LeftUpLeg
    LeftUpLeg LeftLeg
    LeftLeg LeftFoot
    LeftFoot LeftToes
  end

:SAMPLES-PER-SECOND 30
:FULLY-SPECIFIED
:DEGREES
32
root  -3.52459 38.5827 92.1504 -179.437 8.87634 178.019
RightUpLeg  0.0301198 -11.1574 -5.65255
RightLeg  43.0742 -1.6874 -18.93
RightFoot  1.44694 -1.44647 11.2198
RightToes  3.97569e-016 -3.18055e-015 -2.98177e-016
Spine  6.86422 2.03188 5.69304
Spine1  3.78313 3.88353 -6.4162
HEad  -9.94756 1.99909 -0.30777
LeftShoulder1  -3.88251e-019 9.70628e-020 -3.87848e-018
LeftArm  -34.1556 66.1487 -72.5048
LeftForeArm  4.12216 -4.10508 -1.32786
LeftHand  -0.226934 1.50192 7.48701
RightShoulder  8.50266 10.9831 39.3033
RightArm  27.5952 -36.9017 22.8077
RightForeArm  -2.4663 30.2048 -16.1744
RightHand  -1.20551 3.68217 -15.256
LeftUpLeg  -22.2105 2.26169 -10.2204
LeftLeg  27.2979 2.36497 9.95326
LeftFoot  -8.43335 -0.217171 4.78992
LeftToes  5.30048e-011 -3.04284e-011 -3.73785e-011
33
root  -3.54903 38.7381 91.0681 -179.42 8.61099 177.363
RightUpLeg  -5.82992 -10.339 -5.15563
RightLeg  50.433 -0.307632 -22.6805
RightFoot  6.22358 -0.630583 3.26562
RightToes  3.97569e-016 -3.18055e-015 -2.98177e-016
Spine  7.15139 1.8704 3.17187
Spine1  4.00985 3.3352 -5.68968
HEad  -10.0922 2.38309 -0.209066
LeftShoulder1  -3.88251e-019 9.70628e-020 -3.87848e-018
LeftArm  -33.6246 64.4469 -72.5059
LeftForeArm  4.92913 -4.14337 -1.49007
LeftHand  -0.308835 0.572604 8.1319
RightShoulder  8.54834 11.0072 39.4664
RightArm  24.747 -38.1311 22.5118
RightForeArm  -3.51407 28.3985 -15.1031
RightHand  -1.07797 2.53352 -15.5627
LeftUpLeg  -19.7791 2.37966 -11.1715
LeftLeg  26.0647 2.43448 9.54834
LeftFoot  -9.44164 -0.188467 5.10295
LeftToes  5.30048e-011 -3.04284e-011 -3.73785e-011
34
root  -3.53412 38.9718 89.9529 -179.221 8.62674 177.254
RightUpLeg  -11.3871 -9.12479 -3.57957
RightLeg  55.4814 2.94979 -22.3666
RightFoot  4.72046 0.0343335 -0.369895
RightToes  3.97569e-016 -3.18055e-015 -2.98177e-016
Spine  7.06516 1.64686 1.49599
Spine1  4.57576 2.81819 -5.23094
HEad  -10.42 2.92631 -0.164657
LeftShoulder1  -3.88251e-019 9.70628e-020 -3.87848e-018
LeftArm  -32.528 62.1607 -72.1258
LeftForeArm  6.01922 -4.5777 -1.79432
LeftHand  -0.397171 0.111065 9.53729
RightShoulder  8.62352 11.0436 39.7413
RightArm  22.6425 -39.3589 21.9579
RightForeArm  -5.59739 27.0791 -14.2874
RightHand  -0.958173 1.66518 -15.4903
LeftUpLeg  -17.0441 3.33046 -11.4283
LeftLeg  24.1022 2.0728 8.68663
LeftFoot  -10.4198 -0.14121 4.81999
LeftToes  5.30048e-011 -3.04284e-011 -3.73785e-011
35
root  -3.50298 39.2173 88.7839 -179.042 8.77696 177.581
RightUpLeg  -16.2255 -7.73932 -1.55353
RightLeg  57.7914 5.68339 -19.6644
RightFoot  1.39959 -0.0902862 0.635983
RightToes  3.97569e-016 -3.18055e-015 -2.98177e-016
Spine  7.13 1.31385 0.510693
Spine1  4.62961 2.22095 -4.75422
HEad  -10.4405 3.56012 -0.281072
LeftShoulder1  -3.88251e-019 9.70628e-020 -3.87848e-018
LeftArm  -31.2593 60 -71.7426
LeftForeArm  6.61645 -5.67152 -2.13162
LeftHand  -0.464479 -0.00726034 10.874
RightShoulder  8.62841 11.0448 39.7618
RightArm  21.8798 -40.9372 20.8709
RightForeArm  -7.03135 26.2136 -13.7613
RightHand  -0.919899 1.64083 -14.9392
LeftUpLeg  -14.0592 4.30238 -11.1083
LeftLeg  21.9181 1.706 7.79681
LeftFoot  -11.4959 -0.0904581 4.29152
LeftToes  5.30048e-011 -3.04284e-011 -3.73785e-011
36
root  -3.47284 39.3946 87.5707 -178.883 8.90167 177.954
RightUpLeg  -20.4232 -6.50203 0.277722
RightLeg  57.216 6.76748 -17.1994
RightFoot  -0.41477 -0.317102 2.73591
RightToes  3.97569e-016 -3.18055e-015 -2.98177e-016
Spine  7.48263 0.898548 -0.491794
Spine1  3.90326 1.48001 -3.94137
HEad  -10.131 4.34932 -0.589665
LeftShoulder1  -3.88251e-019 9.70628e-020 -3.87848e-018
LeftArm  -29.8416 58.3233 -71.5455
LeftForeArm  6.12334 -7.47246 -2.51495
LeftHand  -0.562238 -0.629295 11.7282
RightShoulder  8.53753 10.9983 39.435
RightArm  22.9342 -42.7691 18.9958
RightForeArm  -6.90794 25.7765 -13.5374
RightHand  -0.939037 2.15641 -14.2349
LeftUpLeg  -11.0521 3.88901 -10.6369
LeftLeg  19.9688 2.54662 7.22631
LeftFoot  -12.3673 -0.0593112 4.14296
LeftToes  5.30048e-011 -3.04284e-011 -3.73785e-011
37
root  -3.44316 39.4768 86.3253 -178.62 8.89996 178.344
RightUpLeg  -23.9757 -5.64305 1.95596
RightLeg  53.9742 6.38256 -15.7209
RightFoot  -1.39412 -0.297673 2.82601
RightToes  3.97569e-016 -3.18055e-015 -2.98177e-016
Spine  7.83549 0.387732 -1.79353
Spine1  2.87532 0.532414 -2.27239
HEad  -9.88371 5.49923 -1.07455
LeftShoulder1  -3.88251e-019 9.70628e-020 -3.87848e-018
LeftArm  -28.3574 56.996 -71.5503
LeftForeArm  4.36118 -9.93108 -2.9269
LeftHand  -0.671704 -1.55827 12.0581
RightShoulder  8.42127 10.9404 39.0103
RightArm  25.5407 -44.2151 16.4927
RightForeArm  -5.73866 25.628 -13.5127
RightHand  -0.95634 2.43077 -14.0033
LeftUpLeg  -8.26977 1.27734 -10.0559
LeftLeg  18.5569 5.27525 6.88314
LeftFoot  -13.4015 -0.0270718 3.74355
LeftToes  5.30048e-011 -3.04284e-011 -3.73785e-011
